<?xml version="1.0" encoding="UTF-8" standalone="no"?>
<!-- Created with Inkscape (http://www.inkscape.org/) -->

<svg
   width="557.36768mm"
   height="180.95171mm"
   viewBox="0 0 557.36768 180.95171"
   version="1.1"
   id="svg1"
   inkscape:version="1.4.2 (ebf0e940d0, 2025-05-08)"
   sodipodi:docname="download-google-play.svg"
   xmlns:inkscape="http://www.inkscape.org/namespaces/inkscape"
   xmlns:sodipodi="http://sodipodi.sourceforge.net/DTD/sodipodi-0.dtd"
   xmlns="http://www.w3.org/2000/svg"
   xmlns:svg="http://www.w3.org/2000/svg">
  <sodipodi:namedview
     id="namedview1"
     pagecolor="#ffffff"
     bordercolor="#111111"
     borderopacity="1"
     inkscape:showpageshadow="0"
     inkscape:pageopacity="0"
     inkscape:pagecheckerboard="1"
     inkscape:deskcolor="#d1d1d1"
     inkscape:document-units="mm"
     inkscape:zoom="0.17861602"
     inkscape:cx="934.96652"
     inkscape:cy="1729.968"
     inkscape:window-width="1920"
     inkscape:window-height="1003"
     inkscape:window-x="0"
     inkscape:window-y="0"
     inkscape:window-maximized="1"
     inkscape:current-layer="layer1" />
  <defs
     id="defs1" />
  <g
     inkscape:label="Layer 1"
     inkscape:groupmode="layer"
     id="layer1"
     transform="translate(78.58125,82.285423)">
    <g
       id="g1">
      <path
         id="path3"
         d="M 456.86132,98.666288 H -56.657524 c -12.108037,0 -21.923726,-9.815327 -21.923726,-21.924089 V -60.360284 c 0,-12.11086 9.815689,-21.925139 21.923726,-21.925139 H 456.86132 c 12.10733,0 21.92512,9.814279 21.92512,21.925139 V 76.742199 c 0,12.108762 -9.81779,21.924089 -21.92512,21.924089"
         style="fill:#000000;fill-opacity:1;fill-rule:nonzero;stroke:none;stroke-width:0.0352777" />
      <path
         id="path4"
         d="m 101.58271,-43.49398 c -0.74755,-1.439334 -1.785774,-2.525887 -3.115041,-3.259667 -1.329266,-0.733777 -2.865966,-1.100667 -4.610444,-1.100667 -1.910635,0 -3.613493,0.43039 -5.108575,1.28764 -1.495425,0.85725 -2.665597,2.07786 -3.509777,3.654777 -0.84492,1.576917 -1.266825,3.404306 -1.266825,5.482167 0,2.077863 0.421905,3.912306 1.266825,5.503333 0.84418,1.594556 2.014352,2.818693 3.509777,3.675943 1.495082,0.86078 3.19794,1.28764 5.108575,1.28764 2.575269,0 4.665478,-0.719666 6.272025,-2.159 1.60549,-1.439333 2.58869,-3.393723 2.94889,-5.85611 H 92.237631 v -3.781777 h 15.907809 v 3.69711 c -0.30517,2.243667 -1.10067,4.307417 -2.38831,6.19125 -1.28765,1.880304 -2.96334,3.383137 -5.02569,4.504971 -2.063031,1.121833 -4.354667,1.68275 -6.874215,1.68275 -2.71391,0 -5.191839,-0.631471 -7.434447,-1.890887 -2.242952,-1.259417 -4.022355,-3.009197 -5.337175,-5.252863 -1.315852,-2.243667 -1.973077,-4.77661 -1.973077,-7.60236 0,-2.82575 0.657225,-5.358694 1.973077,-7.598834 1.31482,-2.243666 3.100573,-3.99697 5.357654,-5.256387 2.25671,-1.259416 4.727918,-1.887362 7.413968,-1.887362 3.073744,0 5.80779,0.751416 8.203145,2.261306 2.39501,1.50989 4.13279,3.647723 5.21263,6.417027 h -5.69029"
         style="fill:#ffffff;fill-opacity:1;fill-rule:nonzero;stroke:none;stroke-width:0.0352777" />
      <path
         id="path5"
         d="m 117.53214,-47.977784 v 8.470193 h 9.9681 v 3.862917 h -9.9681 v 8.847667 h 11.2141 v 3.862916 h -15.94908 v -28.90661 h 15.94908 v 3.862917 h -11.2141"
         style="fill:#ffffff;fill-opacity:1;fill-rule:nonzero;stroke:none;stroke-width:0.0352777" />
      <path
         id="path6"
         d="m 153.20962,-51.801897 v 3.862917 h -7.68385 v 25.004889 h -4.73498 V -47.93898 h -7.72549 v -3.862917 h 20.14432"
         style="fill:#ffffff;fill-opacity:1;fill-rule:nonzero;stroke:none;stroke-width:0.0352777" />
      <path
         id="path7"
         d="m 173.52081,-51.801897 v 28.867806 h -4.7343 v -28.867806 h 4.7343"
         style="fill:#ffffff;fill-opacity:1;fill-rule:nonzero;stroke:none;stroke-width:0.0352777" />
      <path
         id="path8"
         d="m 198.39868,-51.801897 v 3.862917 h -7.6835 v 25.004889 h -4.73427 V -47.93898 h -7.72584 v -3.862917 h 20.14361"
         style="fill:#ffffff;fill-opacity:1;fill-rule:nonzero;stroke:none;stroke-width:0.0352777" />
      <path
         id="path9"
         d="m 232.24772,-28.06348 c 1.49577,-0.871361 2.667,-2.116667 3.51012,-3.735917 0.84667,-1.622777 1.26648,-3.496027 1.26648,-5.630333 0,-2.130777 -0.41981,-4.0005 -1.26648,-5.605637 -0.84312,-1.60514 -2.01435,-2.839863 -3.51012,-3.697113 -1.49225,-0.85725 -3.19617,-1.287637 -5.10823,-1.287637 -1.90852,0 -3.61244,0.430387 -5.10823,1.287637 -1.49577,0.85725 -2.66346,2.091973 -3.51012,3.697113 -0.84315,1.605137 -1.26648,3.47486 -1.26648,5.605637 0,2.134306 0.42333,4.007556 1.26648,5.630333 0.84666,1.61925 2.01435,2.864556 3.51012,3.735917 1.49579,0.87136 3.19971,1.308806 5.10823,1.308806 1.91206,0 3.61598,-0.437446 5.10823,-1.308806 z m -12.52008,3.531306 c -2.2578,-1.259417 -4.04284,-3.01978 -5.35871,-5.27403 -1.31586,-2.257776 -1.97202,-4.797776 -1.97202,-7.623526 0,-2.82575 0.65616,-5.358694 1.97202,-7.598834 1.31587,-2.243666 3.10091,-3.99697 5.35871,-5.256387 2.25425,-1.259416 4.7272,-1.887362 7.41185,-1.887362 2.71285,0 5.19994,0.627946 7.45773,1.887362 2.25425,1.259417 4.03577,3.012721 5.33752,5.256387 1.29823,2.24014 1.95085,4.773084 1.95085,7.598834 0,2.82575 -0.65262,5.36575 -1.95085,7.623526 -1.30175,2.25425 -3.08327,4.014613 -5.33752,5.27403 -2.25779,1.259417 -4.74488,1.88736 -7.45773,1.88736 -2.68465,0 -5.1576,-0.627943 -7.41185,-1.88736"
         style="fill:#ffffff;fill-opacity:1;fill-rule:nonzero;stroke:none;stroke-width:0.0352777" />
      <path
         id="path10"
         d="m 270.25247,-22.934091 h -4.73429 l -14.24517,-21.554723 v 21.554723 h -4.73427 v -28.90661 h 4.73427 l 14.24517,21.512387 v -21.512387 h 4.73429 v 28.90661"
         style="fill:#ffffff;fill-opacity:1;fill-rule:nonzero;stroke:none;stroke-width:0.0352777" />
      <path
         id="path11"
         d="m 111.62982,21.748739 c -0.98425,-1.802693 -2.33715,-3.178526 -4.05943,-4.120443 -1.72225,-0.941917 -3.73168,-1.41464 -6.02755,-1.41464 -2.543173,0 -4.797767,0.57503 -6.765923,1.721557 -1.968156,1.146526 -3.505914,2.786943 -4.612931,4.921249 -1.107017,2.130777 -1.660869,4.593167 -1.660869,7.380111 0,2.871612 0.563377,5.372806 1.691561,7.503583 1.127495,2.130777 2.695575,3.771193 4.70535,4.92125 2.008716,1.146527 4.345887,1.721556 7.011832,1.721556 3.27977,0 5.96617,-0.871363 8.05709,-2.614083 2.09126,-1.742723 3.46461,-4.173363 4.12115,-7.28839 H 99.328465 v -6.582833 h 23.249465 v 7.503583 c -0.57467,2.995084 -1.80483,5.76439 -3.69041,8.30439 -1.88666,2.543527 -4.31588,4.582583 -7.28839,6.120693 -2.97358,1.538111 -6.3045,2.307167 -9.9949,2.307167 -4.141977,0 -7.88353,-0.93486 -11.225032,-2.801056 -3.342587,-1.862667 -5.966195,-4.455584 -7.872941,-7.77875 -1.906429,-3.323167 -2.859987,-7.09436 -2.859987,-11.31711 0,-4.22275 0.953558,-8.004527 2.859987,-11.34886 1.906746,-3.340807 4.530354,-5.944307 7.872941,-7.8105 C 93.7207,9.2110191 97.4418,8.2796858 101.54284,8.2796858 c 4.83764,0 9.04134,1.1782768 12.60864,3.5348332 3.56727,2.360083 6.0279,5.669137 7.38082,9.93422 h -9.90248"
         style="fill:#ffffff;fill-opacity:1;fill-rule:nonzero;stroke:none;stroke-width:0.0352777" />
      <path
         id="path12"
         d="m 148.50249,43.677406 c 1.37338,-0.758473 2.46981,-1.897944 3.29073,-3.41489 0.8195,-1.516943 1.22979,-3.36197 1.22979,-5.535081 0,-3.2385 -0.85127,-5.732639 -2.55236,-7.475362 -1.7018,-1.742721 -3.78283,-2.614084 -6.24311,-2.614084 -2.45991,0 -4.52048,0.871363 -6.18138,2.614084 -1.66052,1.742723 -2.49095,4.236862 -2.49095,7.475362 0,3.238498 0.80926,5.729111 2.42957,7.471831 1.61925,1.742723 3.65971,2.614083 6.11999,2.614083 1.55787,0 3.02332,-0.37747 4.39772,-1.135943 z m -13.25491,6.455833 c -2.62432,-1.453444 -4.68489,-3.513667 -6.18138,-6.180667 -1.49717,-2.667 -2.24472,-5.739693 -2.24472,-9.225137 0,-3.485446 0.76872,-6.561666 2.30648,-9.228666 1.53738,-2.663473 3.63855,-4.723696 6.30449,-6.180667 2.66488,-1.453446 5.63737,-2.183696 8.9182,-2.183696 3.28015,0 6.25264,0.73025 8.91858,2.183696 2.66488,1.456971 4.76673,3.517194 6.30449,6.180667 1.53741,2.667 2.30648,5.74322 2.30648,9.228666 0,3.485444 -0.79023,6.558137 -2.36821,9.225137 -1.57869,2.667 -3.71123,4.727223 -6.39657,6.180667 -2.68605,1.456973 -5.68925,2.183694 -9.01065,2.183694 -3.28117,0 -6.23358,-0.726721 -8.85719,-2.183694"
         style="fill:#ffffff;fill-opacity:1;fill-rule:nonzero;stroke:none;stroke-width:0.0352777" />
      <path
         id="path13"
         d="m 187.74126,43.677406 c 1.37583,-0.758473 2.47298,-1.897944 3.29142,-3.41489 0.82198,-1.516943 1.23121,-3.36197 1.23121,-5.535081 0,-3.2385 -0.85373,-5.732639 -2.55413,-7.475362 -1.70037,-1.742721 -3.78177,-2.614084 -6.24062,-2.614084 -2.4624,0 -4.52263,0.871363 -6.18421,2.614084 -1.65804,1.742723 -2.49061,4.236862 -2.49061,7.475362 0,3.238498 0.8114,5.729111 2.43065,7.471831 1.61925,1.742723 3.65829,2.614083 6.12069,2.614083 1.55575,0 3.02331,-0.37747 4.3956,-1.135943 z m -13.25385,6.455833 c -2.62467,-1.453444 -4.6849,-3.513667 -6.18067,-6.180667 -1.49577,-2.667 -2.24367,-5.739693 -2.24367,-9.225137 0,-3.485446 0.76907,-6.561666 2.30365,-9.228666 1.5381,-2.663473 3.64067,-4.723696 6.30412,-6.180667 2.667,-1.453446 5.64092,-2.183696 8.92175,-2.183696 3.27732,0 6.25123,0.73025 8.91823,2.183696 2.66349,1.456971 4.76602,3.517194 6.30415,6.180667 1.5381,2.667 2.30717,5.74322 2.30717,9.228666 0,3.485444 -0.79023,6.558137 -2.37067,9.225137 -1.57691,2.667 -3.71123,4.727223 -6.39588,6.180667 -2.68462,1.456973 -5.69028,2.183694 -9.00993,2.183694 -3.28084,0 -6.23359,-0.726721 -8.85825,-2.183694"
         style="fill:#ffffff;fill-opacity:1;fill-rule:nonzero;stroke:none;stroke-width:0.0352777" />
      <path
         id="path14"
         d="m 230.82601,29.344046 c -0.81844,-1.495777 -1.92617,-2.645834 -3.31962,-3.44311 -1.39348,-0.800807 -2.8928,-1.199447 -4.49088,-1.199447 -1.59808,0 -3.07621,0.388057 -4.42735,1.167697 -1.35467,0.779637 -2.45182,1.915583 -3.29142,3.414887 -0.8396,1.495779 -1.25942,3.27025 -1.25942,5.319889 0,2.04964 0.41982,3.84175 1.25942,5.37986 0.8396,1.538111 1.94733,2.71639 3.31965,3.538361 1.37583,0.818446 2.83985,1.231196 4.39912,1.231196 1.59808,0 3.0974,-0.402167 4.49088,-1.199446 1.39345,-0.800804 2.50118,-1.947334 3.31962,-3.446637 0.82198,-1.49578 1.23121,-3.291417 1.23121,-5.379861 0,-2.091973 -0.40923,-3.884083 -1.23121,-5.383389 z m -3.31962,-10.703277 c 1.92616,1.005417 3.4431,2.307167 4.55083,3.908777 v -4.861277 h 8.67127 v 34.321747 c 0,3.156656 -0.635,5.97535 -1.905,8.45679 -1.27352,2.480733 -3.17852,4.448526 -5.72206,5.904793 -2.54,1.454856 -5.61621,2.183342 -9.22513,2.183342 -4.83658,0 -8.80533,-1.128184 -11.89921,-3.382785 -3.09737,-2.255661 -4.85068,-5.330825 -5.25991,-9.225844 h 8.54781 c 0.45156,1.557512 1.42523,2.798585 2.921,3.720745 1.49931,0.922867 3.31258,1.3843 5.44335,1.3843 2.50121,0 4.53321,-0.748945 6.09248,-2.245076 1.55575,-1.49719 2.3354,-3.762727 2.3354,-6.796265 v -5.291667 c -1.10773,1.601613 -2.63525,2.935113 -4.58258,4.0005 -1.94734,1.06539 -4.17338,1.598084 -6.67457,1.598084 -2.86808,0 -5.49275,-0.737304 -7.87048,-2.215444 -2.38125,-1.47461 -4.2545,-3.556 -5.63033,-6.24064 -1.37229,-2.684637 -2.0602,-5.771443 -2.0602,-9.256887 0,-3.446639 0.68791,-6.498166 2.0602,-9.165166 1.37583,-2.663473 3.24204,-4.71664 5.59858,-6.152444 2.35657,-1.432279 4.99182,-2.151946 7.90223,-2.151946 2.54352,0 4.77661,0.504473 6.70632,1.506363"
         style="fill:#ffffff;fill-opacity:1;fill-rule:nonzero;stroke:none;stroke-width:0.0352777" />
      <path
         id="path15"
         d="M 257.76766,6.2476858 V 51.763072 h -8.61132 V 6.2476858 h 8.61132"
         style="fill:#ffffff;fill-opacity:1;fill-rule:nonzero;stroke:none;stroke-width:0.0352777" />
      <path
         id="path16"
         d="m 289.01318,31.527739 c -0.0423,-2.215443 -0.84313,-3.986387 -2.39888,-5.319887 -1.55929,-1.3335 -3.46781,-2.00025 -5.72206,-2.00025 -2.13077,0 -3.92642,0.645584 -5.37985,1.93675 -1.45698,1.294694 -2.3495,3.086804 -2.67759,5.383387 z m 8.67129,5.782027 h -24.90965 c 0.20461,2.458863 1.0654,4.388556 2.58234,5.78203 1.51693,1.39347 3.38314,2.09197 5.59858,2.09197 3.19617,0 5.47158,-1.375833 6.82625,-4.12397 h 9.28865 c -0.98425,3.280833 -2.87163,5.979583 -5.65857,8.089193 -2.79048,2.11314 -6.21241,3.167944 -10.27289,3.167944 -3.28084,0 -6.223,-0.726721 -8.8265,-2.183694 -2.6035,-1.453444 -4.6355,-3.513667 -6.08894,-6.180667 -1.45698,-2.667 -2.18369,-5.739693 -2.18369,-9.225137 0,-3.527779 0.71613,-6.621639 2.15194,-9.288639 1.43581,-2.663473 3.44665,-4.71664 6.02898,-6.152444 2.58233,-1.432279 5.55625,-2.151946 8.91821,-2.151946 3.2385,0 6.13833,0.6985 8.70304,2.091973 2.56117,1.393473 4.55083,3.372557 5.96546,5.933723 1.41464,2.564694 2.12373,5.50686 2.12373,8.8265 0,1.231194 -0.0847,2.338917 -0.24694,3.323164"
         style="fill:#ffffff;fill-opacity:1;fill-rule:nonzero;stroke:none;stroke-width:0.0352777" />
      <path
         id="path17"
         d="m 339.56976,26.698212 c 1.14654,-1.083026 1.72156,-2.614083 1.72156,-4.582583 0,-4.180416 -2.3354,-6.27239 -7.01323,-6.27239 h -6.82625 v 12.488334 h 6.82625 c 2.37773,0 4.14163,-0.546804 5.29167,-1.633361 z m 8.94998,1.876777 c -1.08657,2.010834 -2.79048,3.630084 -5.10471,4.86128 -2.31773,1.227666 -5.23873,1.845027 -8.76652,1.845027 h -7.19667 v 16.481776 h -8.61129 V 8.833546 h 15.80796 c 3.32316,0 6.15246,0.5715 8.48783,1.721556 2.33892,1.146527 4.08869,2.726971 5.25992,4.734277 1.16768,2.010834 1.75331,4.28625 1.75331,6.82625 0,2.30011 -0.54681,4.452057 -1.62983,6.45936"
         style="fill:#ffffff;fill-opacity:1;fill-rule:nonzero;stroke:none;stroke-width:0.0352777" />
      <path
         id="path18"
         d="M 364.84628,6.2476858 V 51.763072 h -8.60777 V 6.2476858 h 8.60777"
         style="fill:#ffffff;fill-opacity:1;fill-rule:nonzero;stroke:none;stroke-width:0.0352777" />
      <path
         id="path19"
         d="m 396.70917,29.344046 c -0.82198,-1.495777 -1.92968,-2.645834 -3.32316,-3.44311 -1.39348,-0.800807 -2.88925,-1.199447 -4.49085,-1.199447 -1.59809,0 -3.07272,0.388057 -4.42738,1.167697 -1.35112,0.779637 -2.45179,1.915583 -3.29142,3.414887 -0.8396,1.495779 -1.25942,3.27025 -1.25942,5.319889 0,2.04964 0.41982,3.84175 1.25942,5.37986 0.83963,1.538111 1.94733,2.71639 3.32317,3.538361 1.37231,0.818446 2.83988,1.231196 4.39563,1.231196 1.6016,0 3.09737,-0.402167 4.49085,-1.199446 1.39348,-0.800804 2.50118,-1.947334 3.32316,-3.446637 0.81844,-1.49578 1.22767,-3.291417 1.22767,-5.379861 0,-2.091973 -0.40923,-3.884083 -1.22767,-5.383389 z m -23.52675,-3.90525 c 1.37232,-2.663473 3.2385,-4.71664 5.59507,-6.152444 2.36008,-1.432279 4.99179,-2.151946 7.90575,-2.151946 2.54,0 4.76602,0.515057 6.67102,1.538113 1.90852,1.026583 3.43606,2.31775 4.58258,3.877027 v -4.861277 h 8.67481 v 34.074803 h -8.67481 v -4.981223 c -1.10419,1.598084 -2.63525,2.921 -4.58258,3.96875 -1.94734,1.044223 -4.191,1.566334 -6.73452,1.566334 -2.86808,0 -5.48217,-0.737304 -7.84225,-2.215444 -2.35657,-1.47461 -4.22275,-3.556 -5.59507,-6.24064 -1.37583,-2.684637 -2.06023,-5.771443 -2.06023,-9.256887 0,-3.446639 0.6844,-6.498166 2.06023,-9.165166"
         style="fill:#ffffff;fill-opacity:1;fill-rule:nonzero;stroke:none;stroke-width:0.0352777" />
      <path
         id="path20"
         d="m 447.63617,17.688269 -21.09964,50.190045 h -9.16163 l 7.38011,-16.976019 -13.65602,-33.214026 h 9.65904 l 8.79475,23.805443 8.91823,-23.805443 h 9.16516"
         style="fill:#ffffff;fill-opacity:1;fill-rule:nonzero;stroke:none;stroke-width:0.0352777" />
      <path
         id="path21"
         d="m -42.143541,-46.54198 c -1.589616,1.894416 -2.5781,4.353279 -2.5781,7.154333 v 84.260969 c 0,2.218974 0.620184,4.22275 1.667934,5.901973 L 1.409344,1.8697127 -42.143541,-46.54198"
         style="fill:#4285f5;fill-opacity:1;fill-rule:nonzero;stroke:none;stroke-width:0.0352777" />
      <path
         id="path22"
         d="m 21.66161,-20.408204 -49.626659,-28.65261 c -5.021085,-2.899833 -10.888485,-1.400526 -14.178492,2.518834 L 1.409344,1.8697127 21.66161,-20.408204"
         style="fill:#00ae45;fill-opacity:1;fill-rule:nonzero;stroke:none;stroke-width:0.0352777" />
      <path
         id="path23"
         d="m 21.66161,-20.408204 -49.626659,-28.65261 c -5.021085,-2.899833 -10.888485,-1.400526 -14.178492,2.518834 L 1.409344,1.8697127 21.66161,-20.408204"
         style="fill:#00ae45;fill-opacity:1;fill-rule:nonzero;stroke:none;stroke-width:0.0352777" />
      <path
         id="path24"
         d="M -27.965049,54.550016 22.560487,25.378823 1.409344,1.8697127 -43.053707,50.775295 c 3.013075,4.828117 9.5631,6.963479 15.088658,3.774721"
         style="fill:#00ae45;fill-opacity:1;fill-rule:nonzero;stroke:none;stroke-width:0.0352777" />
      <path
         id="path25"
         d="M -27.965049,54.550016 22.560487,25.378823 1.409344,1.8697127 -43.053707,50.775295 c 3.013075,4.828117 9.5631,6.963479 15.088658,3.774721"
         style="fill:#eb4132;fill-opacity:1;fill-rule:nonzero;stroke:none;stroke-width:0.0352777" />
      <path
         id="path26"
         d="M 22.560487,25.378823 45.007031,12.417769 c 7.447491,-4.3003628 7.447491,-15.0494998 0,-19.346333 L 21.66161,-20.408204 1.409344,1.8697127 22.560487,25.378823"
         style="fill:#00ae45;fill-opacity:1;fill-rule:nonzero;stroke:none;stroke-width:0.0352777" />
      <path
         id="path27"
         d="m 22.560487,25.378823 v 0 L 1.409344,1.8697127 21.66161,-20.408204 45.007031,-6.928564 c 3.723571,2.1484166 5.585531,5.9090268 5.585531,9.6731665 0,3.7606102 -1.86196,7.5247495 -5.585531,9.6731665 L 22.560487,25.378823"
         style="fill:#8ad320;fill-opacity:1;fill-rule:nonzero;stroke:none;stroke-width:0.0352777" />
      <path
         id="path28"
         d="M 22.560487,25.378823 45.007031,12.417769 c 7.447491,-4.3003628 7.447491,-15.0494998 0,-19.3498599 L 21.66161,-20.408204 1.409344,1.8697127 22.560487,25.378823"
         style="fill:#ffbb00;fill-opacity:1;fill-rule:nonzero;stroke:none;stroke-width:0.0352777" />
    </g>
  </g>
</svg>
