<?xml version="1.0" encoding="UTF-8" standalone="no"?>
<!-- Created with Inkscape (http://www.inkscape.org/) -->

<svg
   width="557.36768mm"
   height="180.95172mm"
   viewBox="0 0 557.36768 180.95172"
   version="1.1"
   id="svg1"
   inkscape:version="1.4.2 (ebf0e940d0, 2025-05-08)"
   sodipodi:docname="download-apple-app-store.svg"
   xmlns:inkscape="http://www.inkscape.org/namespaces/inkscape"
   xmlns:sodipodi="http://sodipodi.sourceforge.net/DTD/sodipodi-0.dtd"
   xmlns="http://www.w3.org/2000/svg"
   xmlns:svg="http://www.w3.org/2000/svg">
  <sodipodi:namedview
     id="namedview1"
     pagecolor="#ffffff"
     bordercolor="#111111"
     borderopacity="1"
     inkscape:showpageshadow="0"
     inkscape:pageopacity="0"
     inkscape:pagecheckerboard="1"
     inkscape:deskcolor="#d1d1d1"
     inkscape:document-units="mm"
     inkscape:zoom="0.17861602"
     inkscape:cx="906.97351"
     inkscape:cy="1466.8337"
     inkscape:window-width="1920"
     inkscape:window-height="1003"
     inkscape:window-x="0"
     inkscape:window-y="0"
     inkscape:window-maximized="1"
     inkscape:current-layer="layer1" />
  <defs
     id="defs1" />
  <g
     inkscape:label="Layer 1"
     inkscape:groupmode="layer"
     id="layer1"
     transform="translate(275.69583,39.576036)">
    <path
       id="path29"
       d="m 259.74674,141.37568 h -513.51849 c -12.10839,0 -21.92408,-9.81427 -21.92408,-21.92515 V -17.651947 c 0,-12.108392 9.81569,-21.924089 21.92408,-21.924089 h 513.51849 c 12.10733,0 21.92512,9.815697 21.92512,21.924089 V 119.45053 c 0,12.11088 -9.81779,21.92515 -21.92512,21.92515"
       style="fill:#000000;fill-opacity:1;fill-rule:nonzero;stroke:none;stroke-width:0.0352777" />
    <path
       id="path30"
       d="m -99.22828,14.195763 c 1.799511,-1.827371 2.699809,-4.4026666 2.699809,-7.7258333 0,-3.3478522 -0.900298,-5.96545446 -2.699809,-7.8492878 -1.80022,-1.8838333 -4.38925,-2.8257499 -7.76711,-2.8257499 h -4.69336 v 21.141954 h 4.69336 c 3.37786,0 5.96689,-0.913685 7.76711,-2.741083 z m 0.311494,-20.496371 c 2.3114,1.1782689 4.097523,2.8645379 5.357998,5.0658712 1.259761,2.20133328 1.889839,4.7695643 1.889839,7.7046665 0,2.9351288 -0.630078,5.4821663 -1.889839,7.6447123 -1.260475,2.159 -3.046598,3.813519 -5.357998,4.960038 -2.312454,1.150064 -5.004854,1.725083 -8.078604,1.725083 h -9.42835 V -8.0680247 h 9.42835 c 3.07375,0 5.76615,0.5891213 8.078604,1.7674167"
       style="fill:#ffffff;fill-opacity:1;fill-rule:nonzero;stroke:none;stroke-width:0.0352777" />
    <path
       id="path31"
       d="m -73.622249,16.188975 c 1.065742,-0.582083 1.931458,-1.453462 2.596092,-2.614083 0.664263,-1.164167 0.996579,-2.575296 0.996579,-4.236879 0,-1.6615833 -0.318558,-3.0691666 -0.955304,-4.2156855 -0.637117,-1.1500644 -1.481667,-2.0143523 -2.53365,-2.5964356 -1.052354,-0.5820833 -2.187575,-0.8748977 -3.405717,-0.8748977 -1.218856,0 -2.346695,0.2928144 -3.38492,0.8748977 -1.038569,0.5820833 -1.862667,1.4463712 -2.471553,2.5964356 -0.609256,1.1465189 -0.913685,2.5541022 -0.913685,4.2156855 0,2.462398 0.629708,4.367398 1.889813,5.707962 1.259787,1.344083 2.84517,2.017871 4.755806,2.017871 1.218141,0 2.360427,-0.292788 3.426539,-0.874871 z m -9.283012,3.510121 c -1.744477,-0.980704 -3.115019,-2.367121 -4.111969,-4.152185 -0.99695,-1.788584 -1.495081,-3.855853 -1.495081,-6.208898 0,-2.3283333 0.51189,-4.3885378 1.5367,-6.1912499 1.024123,-1.7991666 2.422525,-3.18203786 4.194889,-4.1521856 1.77165,-0.9701476 3.751792,-1.4534356 5.939367,-1.4534356 2.187231,0 4.167373,0.483288 5.939711,1.4534356 1.77165,0.97014774 3.170078,2.353019 4.194889,4.1521856 1.024123,1.8027121 1.5367,3.8629166 1.5367,6.1912499 0,2.324814 -0.525992,4.388564 -1.577975,6.187731 -1.052698,1.799167 -2.485681,3.192648 -4.29895,4.173352 -1.813983,0.98425 -3.814577,1.474629 -6.001808,1.474629 -2.159715,0 -4.111969,-0.490379 -5.856473,-1.474629"
       style="fill:#ffffff;fill-opacity:1;fill-rule:nonzero;stroke:none;stroke-width:0.0352777" />
    <path
       id="path32"
       d="m -29.742691,-2.0849224 -7.101073,22.8846854 h -4.984406 l -4.6101,-16.9051022 -4.610444,16.9051022 h -4.984035 l -7.14412,-22.8846854 h 4.817903 l 4.776602,18.4008974 4.859523,-18.4008974 h 4.942761 l 4.652089,18.3162304 4.734613,-18.3162304 h 4.650687"
       style="fill:#ffffff;fill-opacity:1;fill-rule:nonzero;stroke:none;stroke-width:0.0352777" />
    <path
       id="path33"
       d="m -9.8248581,-1.3370247 c 1.4252046,0.7478712 2.54,1.85560223 3.3443333,3.3231666 0.8007879,1.4675379 1.2029546,3.2384999 1.2029546,5.3163522 V 20.799763 H -9.9695058 V 8.0080585 c 0,-2.0496477 -0.5150642,-3.6195 -1.5381022,-4.7131287 -1.026583,-1.0936023 -2.423583,-1.6439356 -4.194545,-1.6439356 -1.774455,0 -3.178519,0.5503333 -4.215686,1.6439356 -1.040686,1.0936287 -1.559269,2.663481 -1.559269,4.7131287 V 20.799763 h -4.734295 V -2.0849224 h 4.734295 v 2.61760222 c 0.776102,-0.94191665 1.767417,-1.67568562 2.970371,-2.20133332 1.2065,-0.5256212 2.487084,-0.7902046 3.84175,-0.7902046 1.799167,0 3.411379,0.3739357 4.8401289,1.1218334"
       style="fill:#ffffff;fill-opacity:1;fill-rule:nonzero;stroke:none;stroke-width:0.0352777" />
    <path
       id="path34"
       d="M 5.4786418,-9.935639 V 20.799763 H 0.7443464 V -9.935639 h 4.7342954"
       style="fill:#ffffff;fill-opacity:1;fill-rule:nonzero;stroke:none;stroke-width:0.0352777" />
    <path
       id="path35"
       d="m 25.061327,16.188975 c 1.065398,-0.582083 1.933231,-1.453462 2.596436,-2.614083 0.66675,-1.164167 0.998378,-2.575296 0.998378,-4.236879 0,-1.6615833 -0.321045,-3.0691666 -0.956045,-4.2156855 C 27.061577,3.9722631 26.218429,3.1079752 25.16716,2.5258919 24.112346,1.9438086 22.979929,1.6509942 21.759327,1.6509942 c -1.217083,0 -2.345981,0.2928144 -3.383147,0.8748977 -1.040686,0.5820833 -1.862667,1.4463712 -2.472955,2.5964356 -0.606795,1.1465189 -0.913712,2.5541022 -0.913712,4.2156855 0,2.462398 0.631481,4.367398 1.890898,5.707962 1.259416,1.344083 2.843397,2.017871 4.755435,2.017871 1.217083,0 2.360083,-0.292788 3.425481,-0.874871 z m -9.281583,3.510121 c -1.74625,-0.980704 -3.115019,-2.367121 -4.113398,-4.152185 -0.994833,-1.788584 -1.49225,-3.855853 -1.49225,-6.208898 0,-2.3283333 0.511546,-4.3885378 1.534584,-6.1912499 1.023064,-1.7991666 2.423583,-3.18203786 4.194545,-4.1521856 1.770936,-0.9701476 3.753538,-1.4534356 5.940769,-1.4534356 2.187231,0 4.166314,0.483288 5.940769,1.4534356 1.770962,0.97014774 3.167962,2.353019 4.194545,4.1521856 1.023038,1.8027121 1.534583,3.8629166 1.534583,6.1912499 0,2.324814 -0.525647,4.388564 -1.576916,6.187731 -1.051296,1.799167 -2.487084,3.192648 -4.300379,4.173352 -1.813269,0.98425 -3.813519,1.474629 -6.00075,1.474629 -2.159,0 -4.113371,-0.490379 -5.856102,-1.474629"
       style="fill:#ffffff;fill-opacity:1;fill-rule:nonzero;stroke:none;stroke-width:0.0352777" />
    <path
       id="path36"
       d="M 54.384224,5.2246418 C 53.735096,4.0604752 52.88491,3.1749942 51.830096,2.5682252 50.778827,1.9579108 49.642891,1.6509942 48.425808,1.6509942 c -1.220629,0 -2.353046,0.2998523 -3.407833,0.8960643 -1.051296,0.5961857 -1.901481,1.4675379 -2.554129,2.6140833 -0.649102,1.1500379 -0.973667,2.5152879 -0.973667,4.0922046 0,1.5769166 0.324565,2.9633336 0.973667,4.1522116 0.652648,1.192372 1.509898,2.099019 2.575295,2.723436 1.065371,0.620898 2.194269,0.934852 3.386667,0.934852 1.217083,0 2.353019,-0.306916 3.404288,-0.917204 1.054814,-0.606796 1.905,-1.499315 2.554128,-2.677584 0.652622,-1.17475 0.977186,-2.554128 0.977186,-4.131045 0,-1.5804356 -0.324564,-2.9492045 -0.977186,-4.1133712 z M 38.061179,3.1467631 c 0.956046,-1.7709356 2.257796,-3.146768897778 3.90525,-4.13101889 1.647481,-0.98425001 3.467815,-1.47460231 5.461,-1.47460231 1.799167,0 3.372564,0.352769 4.716648,1.0583334 1.340564,0.70553787 2.413,1.58749994 3.217333,2.6387689 v -3.3231666 h 4.776602 V 20.799763 H 55.36141 v -3.404288 c -0.804333,1.0795 -1.897936,1.979083 -3.280833,2.69875 -1.386417,0.719667 -2.963334,1.0795 -4.734269,1.0795 -1.9685,0 -3.767667,-0.504481 -5.401045,-1.516962 -1.633353,-1.008936 -2.928038,-2.420038 -3.884084,-4.236852 -0.9525,-1.813269 -1.432269,-3.866436 -1.432269,-6.1665646 0,-2.2965833 0.479769,-4.3321023 1.432269,-6.1065833"
       style="fill:#ffffff;fill-opacity:1;fill-rule:nonzero;stroke:none;stroke-width:0.0352777" />
    <path
       id="path37"
       d="M 82.546474,5.2246418 C 81.893826,4.0604752 81.043641,3.1749942 79.992345,2.5682252 78.937557,1.9579108 77.805141,1.6509942 76.584512,1.6509942 c -1.217083,0 -2.353019,0.2998523 -3.404288,0.8960643 -1.051295,0.5961857 -1.905,1.4675379 -2.554128,2.6140833 -0.652622,1.1500379 -0.977186,2.5152879 -0.977186,4.0922046 0,1.5769166 0.324564,2.9633336 0.977186,4.1522116 0.649128,1.192372 1.509897,2.099019 2.575295,2.723436 1.065371,0.620898 2.194269,0.934852 3.383121,0.934852 1.220629,0 2.353045,-0.306916 3.407833,-0.917204 1.051296,-0.606796 1.901481,-1.499315 2.554129,-2.677584 0.649102,-1.17475 0.977186,-2.554128 0.977186,-4.131045 0,-1.5804356 -0.328084,-2.9492045 -0.977186,-4.1133712 z M 66.223429,3.1467631 c 0.956045,-1.7709356 2.25425,-3.146768897778 3.90525,-4.13101889 1.643962,-0.98425001 3.481916,-1.47460231 5.503333,-1.47460231 1.49225,0 2.966879,0.324538 4.420314,0.9771857 1.456981,0.64910224 2.610565,1.5134166 3.471334,2.5929166 V -9.935639 h 4.776602 V 20.799763 H 83.52366 v -3.446621 c -0.776103,1.107704 -1.848565,2.021416 -3.220853,2.741083 -1.368795,0.719667 -2.942166,1.0795 -4.713128,1.0795 -1.993186,0 -3.817038,-0.504481 -5.461,-1.516962 -1.651,-1.008936 -2.949205,-2.420038 -3.90525,-4.236852 -0.956019,-1.813269 -1.432269,-3.866436 -1.432269,-6.1665646 0,-2.2965833 0.47625,-4.3321023 1.432269,-6.1065833"
       style="fill:#ffffff;fill-opacity:1;fill-rule:nonzero;stroke:none;stroke-width:0.0352777" />
    <path
       id="path38"
       d="m 118.68149,16.188975 c 1.0654,-0.582083 1.92969,-1.453462 2.59644,-2.614083 0.66323,-1.164167 0.99483,-2.575296 0.99483,-4.236879 0,-1.6615833 -0.3175,-3.0691666 -0.95602,-4.2156855 -0.635,-1.1500644 -1.48166,-2.0143523 -2.53293,-2.5964356 -1.0513,-0.5820833 -2.18723,-0.8748977 -3.40432,-0.8748977 -1.2206,0 -2.34598,0.2928144 -3.38666,0.8748977 -1.03717,0.5820833 -1.86267,1.4463712 -2.46944,2.5964356 -0.61031,1.1465189 -0.91371,2.5541022 -0.91371,4.2156855 0,2.462398 0.62796,4.367398 1.88738,5.707962 1.25941,1.344083 2.84691,2.017871 4.75543,2.017871 1.2206,0 2.3636,-0.292788 3.429,-0.874871 z m -9.2851,3.510121 c -1.74273,-0.980704 -3.11504,-2.367121 -4.10988,-4.152185 -0.99835,-1.788584 -1.49577,-3.855853 -1.49577,-6.208898 0,-2.3283333 0.51152,-4.3885378 1.53811,-6.1912499 1.02306,-1.7991666 2.42006,-3.18203786 4.19454,-4.1521856 1.77094,-0.9701476 3.75002,-1.4534356 5.93725,-1.4534356 2.1872,0 4.16983,0.483288 5.94077,1.4534356 1.77093,0.97014774 3.17148,2.353019 4.19452,4.1521856 1.02306,1.8027121 1.53813,3.8629166 1.53813,6.1912499 0,2.324814 -0.52917,4.388564 -1.58047,6.187731 -1.05126,1.799167 -2.48353,3.192648 -4.29683,4.173352 -1.81327,0.98425 -3.81704,1.474629 -6.00427,1.474629 -2.159,0 -4.10985,-0.490379 -5.8561,-1.474629"
       style="fill:#ffffff;fill-opacity:1;fill-rule:nonzero;stroke:none;stroke-width:0.0352777" />
    <path
       id="path39"
       d="m 148.21251,-1.3370247 c 1.42523,0.7478712 2.54,1.85560223 3.34082,3.3231666 0.80433,1.4675379 1.2065,3.2384999 1.2065,5.3163522 V 20.799763 h -4.69197 V 8.0080585 c 0,-2.0496477 -0.51503,-3.6195 -1.5381,-4.7131287 -1.02658,-1.0936023 -2.42358,-1.6439356 -4.19452,-1.6439356 -1.77448,0 -3.17852,0.5503333 -4.21568,1.6439356 -1.04072,1.0936287 -1.5593,2.663481 -1.5593,4.7131287 V 20.799763 h -4.73427 V -2.0849224 h 4.73427 v 2.61760222 c 0.77613,-0.94191665 1.76742,-1.67568562 2.9704,-2.20133332 1.20298,-0.5256212 2.48356,-0.7902046 3.84175,-0.7902046 1.79917,0 3.41135,0.3739357 4.8401,1.1218334"
       style="fill:#ffffff;fill-opacity:1;fill-rule:nonzero;stroke:none;stroke-width:0.0352777" />
    <path
       id="path40"
       d="M 175.10476,1.7779942 V 14.446244 c 0,0.85725 0.20108,1.474602 0.60325,1.848564 0.39865,0.373936 1.08657,0.560917 2.05317,0.560917 h 2.91041 v 3.944038 h -3.73943 c -2.13432,0 -3.76767,-0.497417 -4.90008,-1.495769 -1.13597,-0.994833 -1.70392,-2.614083 -1.70392,-4.85775 V 1.7779942 h -2.69875 v -3.8629166 h 2.69875 v -5.6903143 h 4.7766 v 5.6903143 h 5.56683 v 3.8629166 h -5.56683"
       style="fill:#ffffff;fill-opacity:1;fill-rule:nonzero;stroke:none;stroke-width:0.0352777" />
    <path
       id="path41"
       d="m 201.54193,-1.3370247 c 1.36877,0.7478712 2.44827,1.85560223 3.2385,3.3231666 0.79023,1.4675379 1.18533,3.2384999 1.18533,5.3163522 V 20.799763 h -4.69548 V 8.0080585 c 0,-2.0496477 -0.51152,-3.6195 -1.53458,-4.7131287 -1.02659,-1.0936023 -2.42359,-1.6439356 -4.19804,-1.6439356 -1.77096,0 -3.175,0.5503333 -4.21571,1.6439356 -1.03717,1.0936287 -1.55575,2.663481 -1.55575,4.7131287 V 20.799763 h -4.73427 V -9.935639 h 4.73427 V 0.5714942 c 0.80081,-0.96660228 1.82033,-1.7145 3.05154,-2.2401477 1.23119,-0.5256212 2.58233,-0.7902046 4.04987,-0.7902046 1.74625,0 3.302,0.3739357 4.67432,1.1218334"
       style="fill:#ffffff;fill-opacity:1;fill-rule:nonzero;stroke:none;stroke-width:0.0352777" />
    <path
       id="path42"
       d="m 228.01791,7.3024941 c -0.0282,-1.74625 -0.64913,-3.14325 -1.86973,-4.1945189 -1.21709,-1.0548144 -2.72698,-1.5804621 -4.52615,-1.5804621 -1.63335,0 -3.03035,0.5185834 -4.19452,1.5592954 -1.16417,1.0371667 -1.8556,2.4412046 -2.07785,4.2156856 z m 4.7766,3.8205829 h -17.48719 c 0.14111,1.827398 0.81844,3.294936 2.03552,4.402667 1.22061,1.107731 2.7164,1.661583 4.48734,1.661583 2.54706,0 4.34623,-1.065397 5.40102,-3.199685 h 5.10823 c -0.69498,2.106083 -1.94734,3.827621 -3.76061,5.171704 -1.81329,1.344084 -4.064,2.014379 -6.74864,2.014379 -2.18723,0 -4.14867,-0.490379 -5.87727,-1.474629 -1.73215,-0.980704 -3.08682,-2.367121 -4.07107,-4.152185 -0.98425,-1.788584 -1.4746,-3.855853 -1.4746,-6.208898 0,-2.3530189 0.47977,-4.4238332 1.43227,-6.2124165 0.95602,-1.7850379 2.3001,-3.16087126 4.02873,-4.131019 1.73212,-0.9701476 3.71827,-1.4534356 5.96194,-1.4534356 2.159,0 4.08516,0.4691857 5.77143,1.4111023 1.68982,0.94191667 3.00567,2.2648333 3.94759,3.96875 0.94191,1.7003977 1.41112,3.6618333 1.41112,5.8772688 0,0.85725 -0.0565,1.633379 -0.16581,2.324814"
       style="fill:#ffffff;fill-opacity:1;fill-rule:nonzero;stroke:none;stroke-width:0.0352777" />
    <path
       id="path43"
       d="m -91.389549,80.429781 -6.212072,-17.959916 -6.212069,17.959916 z m 2.337488,6.886231 h -17.099119 l -2.8293,8.180917 h -9.04134 l 15.43828,-42.993019 h 10.025591 l 15.437908,42.993019 h -9.102724 l -2.829296,-8.180917"
       style="fill:#ffffff;fill-opacity:1;fill-rule:nonzero;stroke:none;stroke-width:0.0352777" />
    <path
       id="path44"
       d="m -45.967655,73.017929 c -0.840661,-1.495769 -1.948048,-2.63525 -3.321394,-3.414898 -1.374087,-0.779621 -2.859987,-1.167685 -4.459129,-1.167685 -1.558925,0 -3.024346,0.398647 -4.397719,1.199435 -1.37406,0.797296 -2.481447,1.957917 -3.321394,3.474879 -0.840687,1.516936 -1.260845,3.302 -1.260845,5.351621 0,2.049648 0.420158,3.834712 1.260845,5.348129 0.839947,1.520454 1.947334,2.677583 3.321394,3.478371 1.373373,0.797295 2.838794,1.199462 4.397719,1.199462 1.599142,0 3.085042,-0.409231 4.459129,-1.231212 1.373346,-0.821955 2.480733,-1.989667 3.321394,-3.506602 0.839972,-1.516936 1.260819,-3.319648 1.260819,-5.411602 0,-2.049648 -0.420847,-3.824129 -1.260819,-5.319898 z M -58.145897,62.438115 c 1.94699,-1.047724 4.17195,-1.569853 6.673506,-1.569853 2.911105,0 5.545296,0.719667 7.903633,2.155481 2.357253,1.435788 4.22275,3.474853 5.597155,6.117167 1.373373,2.645833 2.060231,5.711455 2.060231,9.196917 0,3.485435 -0.686858,6.572249 -2.060231,9.256871 -1.374405,2.684647 -3.239902,4.766045 -5.597155,6.240647 -2.358337,1.478148 -4.992528,2.215436 -7.903633,2.215436 -2.501556,0 -4.70535,-0.511519 -6.611779,-1.538102 -1.906746,-1.023065 -3.455087,-2.314231 -4.643966,-3.8735 V 111.73528 H -71.33908 V 61.422141 h 8.610944 v 4.921224 c 1.107017,-1.559269 2.634191,-2.861019 4.582239,-3.90525"
       style="fill:#ffffff;fill-opacity:1;fill-rule:nonzero;stroke:none;stroke-width:0.0352777" />
    <path
       id="path45"
       d="m -4.2650892,73.017929 c -0.8431477,-1.495769 -1.9508522,-2.63525 -3.3231666,-3.414898 -1.3723143,-0.779621 -2.8610192,-1.167685 -4.4591022,-1.167685 -1.559295,0 -3.023314,0.398647 -4.399148,1.199435 -1.372314,0.797296 -2.480019,1.957917 -3.319647,3.474879 -0.839603,1.516936 -1.259417,3.302 -1.259417,5.351621 0,2.049648 0.419814,3.834712 1.259417,5.348129 0.839628,1.520454 1.947333,2.677583 3.319647,3.478371 1.375834,0.797295 2.839853,1.199462 4.399148,1.199462 1.598083,0 3.0867879,-0.409231 4.4591022,-1.231212 1.3723144,-0.821955 2.4800189,-1.989667 3.3231666,-3.506602 0.8396023,-1.516936 1.2594167,-3.319648 1.2594167,-5.411602 0,-2.049648 -0.4198144,-3.824129 -1.2594167,-5.319898 z M -16.446506,62.438115 c 1.947334,-1.047724 4.173353,-1.569853 6.6745646,-1.569853 2.9104166,0 5.5456666,0.719667 7.9057499,2.155481 2.3565379,1.435788 4.22275,3.474853 5.5950379,6.117167 1.3723143,2.645833 2.060231,5.711455 2.060231,9.196917 0,3.485435 -0.6879167,6.572249 -2.060231,9.256871 -1.3722879,2.684647 -3.2385,4.766045 -5.5950379,6.240647 -2.3600833,1.478148 -4.9953333,2.215436 -7.9057499,2.215436 -2.5012116,0 -4.7060646,-0.511519 -6.6110646,-1.538102 -1.908519,-1.023065 -3.453685,-2.314231 -4.642564,-3.8735 v 21.096101 h -8.611288 V 61.422141 h 8.611288 v 4.921224 c 1.104212,-1.559269 2.631731,-2.861019 4.579064,-3.90525"
       style="fill:#ffffff;fill-opacity:1;fill-rule:nonzero;stroke:none;stroke-width:0.0352777" />
    <path
       id="path46"
       d="m 33.436263,94.389198 c -2.398872,-1.023038 -4.296834,-2.501186 -5.690288,-4.427353 -1.393481,-1.926166 -2.113148,-4.201583 -2.151962,-6.82625 h 9.225147 c 0.123481,1.763898 0.747898,3.157353 1.876769,4.180417 1.128898,1.026583 2.674065,1.538102 4.642565,1.538102 2.010833,0 3.58775,-0.479769 4.737814,-1.446371 1.146519,-0.963083 1.721538,-2.2225 1.721538,-3.781795 0,-1.27 -0.391584,-2.314205 -1.167686,-3.136186 -0.779648,-0.818435 -1.753314,-1.464019 -2.921,-1.93675 -1.171231,-0.472731 -2.779897,-0.994833 -4.829519,-1.569852 -2.790481,-0.818462 -5.055314,-1.629833 -6.798045,-2.427129 -1.742705,-0.800788 -3.2385,-2.010833 -4.487333,-3.630083 -1.252353,-1.61925 -1.876769,-3.781769 -1.876769,-6.491102 0,-2.54 0.635,-4.755436 1.905,-6.639269 1.27,-1.887352 3.055064,-3.33375 5.351647,-4.339167 2.296584,-1.001898 4.92125,-1.506352 7.874,-1.506352 4.427353,0 8.025686,1.075954 10.795,3.231436 2.765769,2.151935 4.293288,5.154083 4.582583,9.009935 h -9.472083 c -0.08467,-1.478148 -0.709083,-2.695205 -1.876795,-3.661833 -1.167686,-0.963084 -2.716371,-1.442853 -4.642538,-1.442853 -1.68275,0 -3.026833,0.430398 -4.028731,1.291167 -1.005417,0.860769 -1.509898,2.113121 -1.509898,3.750019 0,1.150064 0.381,2.102564 1.139481,2.861019 0.758481,0.758481 1.700398,1.375833 2.829269,1.845045 1.128898,0.472705 2.716398,1.016 4.766046,1.629834 2.786935,0.821954 5.065871,1.640416 6.82625,2.458852 1.763871,0.821981 3.280833,2.053167 4.554352,3.693583 1.27,1.640417 1.905,3.792352 1.905,6.455833 0,2.296584 -0.596186,4.430898 -1.785065,6.399398 -1.188852,1.964955 -2.931583,3.534833 -5.224621,4.702519 -2.300129,1.171231 -5.023564,1.753314 -8.180916,1.753314 -2.995084,0 -5.690315,-0.511545 -8.089212,-1.538128"
       style="fill:#ffffff;fill-opacity:1;fill-rule:nonzero;stroke:none;stroke-width:0.0352777" />
    <path
       id="path47"
       d="m 74.185641,68.495327 v 16.485287 c 0,1.146546 0.275167,1.979084 0.829019,2.490629 0.553852,0.511519 1.485185,0.769038 2.797519,0.769038 h 3.996981 v 7.256648 h -5.411602 c -7.256648,0 -10.886731,-3.52425 -10.886731,-10.579815 V 68.495327 h -4.060481 v -7.073186 h 4.060481 v -8.424333 h 8.674814 v 8.424333 h 7.623519 v 7.073186 h -7.623519"
       style="fill:#ffffff;fill-opacity:1;fill-rule:nonzero;stroke:none;stroke-width:0.0352777" />
    <path
       id="path48"
       d="m 107.55135,87.407743 c 1.37231,-0.758481 2.46946,-1.894417 3.28789,-3.411379 0.82198,-1.516935 1.23119,-3.361954 1.23119,-5.535083 0,-3.2385 -0.85019,-5.732621 -2.55058,-7.475352 -1.70392,-1.742731 -3.78529,-2.614083 -6.24417,-2.614083 -2.45885,0 -4.522604,0.871352 -6.180668,2.614083 -1.661583,1.742731 -2.490602,4.236852 -2.490602,7.475352 0,3.2385 0.807852,5.729129 2.427102,7.471833 1.61925,1.742731 3.661838,2.614084 6.120708,2.614084 1.55927,0 3.02329,-0.377455 4.39913,-1.139455 z m -13.257376,6.459352 c -2.624667,-1.453435 -4.684898,-3.513666 -6.180667,-6.180666 -1.495795,-2.667 -2.243666,-5.739686 -2.243666,-9.225148 0,-3.485435 0.769038,-6.561666 2.307166,-9.228666 1.538103,-2.663455 3.637122,-4.723686 6.304122,-6.180667 2.663481,-1.453436 5.637401,-2.183686 8.918231,-2.183686 3.28083,0 6.25123,0.73025 8.91823,2.183686 2.66345,1.456981 4.76602,3.517212 6.30412,6.180667 1.53813,2.667 2.30717,5.743231 2.30717,9.228666 0,3.485462 -0.79021,6.558148 -2.36712,9.225148 -1.58047,2.667 -3.71475,4.727231 -6.3994,6.180666 -2.68465,1.456981 -5.68677,2.183686 -9.00994,2.183686 -3.280829,0 -6.233579,-0.726705 -8.858246,-2.183686"
       style="fill:#ffffff;fill-opacity:1;fill-rule:nonzero;stroke:none;stroke-width:0.0352777" />
    <path
       id="path49"
       d="m 140.20799,62.469865 c 1.78507,-1.026557 3.8241,-1.538103 6.12069,-1.538103 v 9.041686 h -2.27542 c -2.70579,0 -4.74485,0.635 -6.12068,1.905 -1.37232,1.273545 -2.06024,3.485462 -2.06024,6.642814 v 16.975667 h -8.61128 V 61.422141 h 8.61128 v 5.29164 c 1.10774,-1.806204 2.55413,-3.220852 4.33565,-4.243916"
       style="fill:#ffffff;fill-opacity:1;fill-rule:nonzero;stroke:none;stroke-width:0.0352777" />
    <path
       id="path50"
       d="m 174.86841,75.261596 c -0.0423,-2.215436 -0.84315,-3.986398 -2.3989,-5.319898 -1.55927,-1.3335 -3.46427,-2.00025 -5.72206,-2.00025 -2.13077,0 -3.92642,0.645583 -5.37986,1.93675 -1.45698,1.294712 -2.3495,3.086814 -2.67758,5.383398 z m 8.67127,5.782018 h -24.90965 c 0.20463,2.458879 1.0654,4.388565 2.58233,5.782046 1.51697,1.393454 3.38315,2.091954 5.59859,2.091954 3.19616,0 5.47513,-1.375833 6.82625,-4.123954 h 9.28864 c -0.98425,3.284352 -2.8716,5.979583 -5.65856,8.089185 -2.79045,2.113148 -6.21242,3.167936 -10.27287,3.167936 -3.28083,0 -6.223,-0.726705 -8.8265,-2.183686 -2.6035,-1.453435 -4.63198,-3.513666 -6.08896,-6.180666 -1.45696,-2.667 -2.18369,-5.739686 -2.18369,-9.225148 0,-3.527769 0.71615,-6.621621 2.15194,-9.288621 1.43581,-2.663481 3.44664,-4.713129 6.02898,-6.148917 2.58233,-1.435814 5.55625,-2.155481 8.91823,-2.155481 3.2385,0 6.14185,0.6985 8.70302,2.091981 2.56116,1.393455 4.55083,3.372538 5.96548,5.93725 1.41462,2.561167 2.1237,5.503334 2.1237,8.822955 0,1.231212 -0.0847,2.338916 -0.24693,3.323166"
       style="fill:#ffffff;fill-opacity:1;fill-rule:nonzero;stroke:none;stroke-width:0.0352777" />
    <path
       id="path51"
       d="m -195.56095,24.045327 c 0,0 -1.06786,-7.669397 5.24228,-14.9507306 6.92432,-7.9904166 14.36793,-7.2813333 14.36793,-7.2813333 0,0 0.38841,8.152712 -4.17442,14.1746289 -8.24477,10.876121 -15.43579,8.057435 -15.43579,8.057435"
       style="fill:#ffffff;fill-opacity:1;fill-rule:nonzero;stroke:none;stroke-width:0.0352777" />
    <path
       id="path52"
       d="m -195.65831,29.964929 c 5.78202,-0.229287 11.35873,-5.242268 21.94066,-4.272121 8.72454,0.800788 15.88946,8.868833 15.24176,9.514417 -0.67945,0.680852 -10.67894,7.380102 -10.38754,19.127602 0.37994,15.324666 13.10569,19.607371 13.10569,19.607371 0,0 -5.33929,18.933583 -18.63936,25.632833 -3.92254,1.975569 -15.02481,-3.947583 -19.41654,-3.982852 -4.67113,-0.03527 -14.29385,5.619751 -18.73673,4.176897 -11.48433,-3.732397 -21.75263,-24.764999 -23.00852,-41.84298 -1.45592,-19.804936 10.55264,-29.591 18.63972,-31.259621 12.23257,-2.525898 14.28009,3.580685 21.26086,3.298454"
       style="fill:#ffffff;fill-opacity:1;fill-rule:nonzero;stroke:none;stroke-width:0.0352777" />
  </g>
</svg>
