<?xml version="1.0" encoding="UTF-8" standalone="no"?>
<!-- Uploaded to: SVG Repo, www.svgrepo.com, Generator: SVG Repo Mixer Tools -->

<svg
   fill="#000000"
   height="800px"
   width="800px"
   version="1.1"
   id="Capa_1"
   viewBox="0 0 512 512"
   xml:space="preserve"
   sodipodi:docname="pause-purp.svg"
   inkscape:version="1.4 (e7c3feb100, 2024-10-09)"
   xmlns:inkscape="http://www.inkscape.org/namespaces/inkscape"
   xmlns:sodipodi="http://sodipodi.sourceforge.net/DTD/sodipodi-0.dtd"
   xmlns="http://www.w3.org/2000/svg"
   xmlns:svg="http://www.w3.org/2000/svg"><defs
   id="defs1" /><sodipodi:namedview
   id="namedview1"
   pagecolor="#ffffff"
   bordercolor="#000000"
   borderopacity="0.25"
   inkscape:showpageshadow="2"
   inkscape:pageopacity="0.0"
   inkscape:pagecheckerboard="0"
   inkscape:deskcolor="#d1d1d1"
   inkscape:zoom="1"
   inkscape:cx="510"
   inkscape:cy="261"
   inkscape:window-width="1728"
   inkscape:window-height="1003"
   inkscape:window-x="0"
   inkscape:window-y="0"
   inkscape:window-maximized="1"
   inkscape:current-layer="Capa_1" />

<path
   style="fill:#4733ff;fill-opacity:1;stroke:#affc41;stroke-width:0.64;stroke-linejoin:bevel"
   d="m 248.09485,511.16922 c -0.0582,-0.0552 -3.56185,-0.29024 -7.78585,-0.52235 -9.54276,-0.52438 -15.49886,-1.08145 -20.16,-1.88553 -1.232,-0.21253 -3.248,-0.50302 -4.48,-0.64552 -1.232,-0.14251 -3.56843,-0.56356 -5.19207,-0.93569 -1.62364,-0.37212 -3.92764,-0.80457 -5.12,-0.961 -3.90562,-0.51237 -21.83738,-5.32981 -30.00793,-8.06175 C 102.67241,473.85696 43.531754,416.78426 16.708114,345.06367 10.391224,328.17368 4.7749644,305.37819 2.7843744,288.54955 c -1.30784,-11.05667 -1.6815,-18.45022 -1.6819,-33.28 -5.1e-4,-18.46669 0.62453,-27.56879 2.74678,-40 0.39061,-2.288 0.80676,-4.88 0.92478,-5.76 0.40379,-3.01082 4.85097,-20.79263 7.1060896,-28.41333 6.73977,-22.77566 20.83286,-51.45445 35.26908,-71.77093 15.57921,-21.925057 34.95674,-41.939451 55.559796,-57.385833 30.77186,-23.070075 65.4275,-38.753746 102.4,-46.3418961 7.4861,-1.5364307 7.72965,-1.5747999 17.92,-2.8231971 20.73586,-2.54030467 49.24967,-2.69220847 64.26701,-0.3423746 1.26114,0.1973371 3.58899,0.5087536 5.17299,0.6920366 1.584,0.183283 7.2,1.2017554 12.48,2.2632722 43.16295,8.67769 81.79333,27.207566 115.84,55.565104 7.26565,6.051575 23.49081,22.279824 29.83147,29.837143 25.23922,30.082185 43.10085,64.593985 52.83164,102.080005 1.23355,4.752 2.34971,9.216 2.48035,9.92 2.53007,13.63406 3.56049,21.18847 4.49574,32.96 0.87794,11.05003 0.45258,40.61472 -0.68598,47.68 -0.17017,1.056 -0.48464,3.648 -0.69882,5.76 -0.62627,6.17549 -0.68845,6.55726 -2.81415,17.28 -6.237,31.46153 -18.86754,62.08655 -36.82134,89.28 -32.13672,48.67539 -78.53641,84.30765 -133.73891,102.70369 -6.77969,2.2593 -25.18096,7.23906 -28.48,7.70727 -0.88,0.12489 -4.192,0.69726 -7.36,1.27193 -10.26989,1.86295 -15.34789,2.44656 -27.84,3.19962 -6.21353,0.37457 -23.65207,0.7666 -23.89415,0.53716 z M 215.029,334.80746 c 1.232,-0.54392 3.30594,-2.10246 4.60875,-3.46343 4.66392,-4.8721 4.36299,0.33081 4.36299,-75.43448 0,-75.76802 0.29989,-70.58452 -4.36299,-75.41275 -4.43213,-4.58929 -3.93728,-4.50093 -26.75695,-4.77771 -20.14731,-0.24436 -20.60306,-0.22173 -23.36,1.15961 -5.10032,2.55548 -8.50501,6.58739 -9.34505,11.06662 -0.56162,2.99469 -0.71436,119.61661 -0.16952,129.44197 0.30392,5.48087 0.80252,9.00564 1.4485,10.24 1.59793,3.05334 6.6718,7.30018 9.76094,8.16993 0.68933,0.19407 10.32533,0.27328 21.41333,0.17602 16.50665,-0.1448 20.56592,-0.35606 22.4,-1.16578 z m 127.25219,0.11617 c 5.03824,-2.22527 8.66683,-6.44015 9.51284,-11.04985 0.58923,-3.2106 0.73708,-122.80933 0.16167,-130.78752 -0.29571,-4.10017 -0.92039,-7.91723 -1.46634,-8.96 -1.32507,-2.53089 -4.70463,-5.58032 -8.03217,-7.24756 -2.75694,-1.38134 -3.21269,-1.40397 -23.36,-1.15961 -22.5732,0.27379 -22.25908,0.22142 -26.51954,4.42156 -1.17224,1.15565 -2.68424,3.18494 -3.36,4.50954 -1.1892,2.33105 -1.2282,4.6129 -1.2146,71.07386 0.0135,65.80789 0.064,68.77204 1.21507,71.2255 1.28989,2.74944 3.64163,5.46783 6.15507,7.11471 2.3701,1.55294 6.69012,1.89068 26.108,2.04106 16.76496,0.12984 17.98784,0.0604 20.8,-1.18169 z"
   id="path3" /></svg>
