<?xml version="1.0" encoding="UTF-8" standalone="no"?>
<svg
   fill="#000000"
   height="800px"
   width="800px"
   version="1.1"
   id="Capa_1"
   viewBox="0 0 512 512"
   xml:space="preserve"
   sodipodi:docname="pause.svg"
   inkscape:version="1.4.2 (ebf0e940d0, 2025-05-08)"
   xmlns:inkscape="http://www.inkscape.org/namespaces/inkscape"
   xmlns:sodipodi="http://sodipodi.sourceforge.net/DTD/sodipodi-0.dtd"
   xmlns="http://www.w3.org/2000/svg"
   xmlns:svg="http://www.w3.org/2000/svg"><defs
   id="defs1" /><sodipodi:namedview
   id="namedview1"
   pagecolor="#ffffff"
   bordercolor="#000000"
   borderopacity="0.25"
   inkscape:showpageshadow="2"
   inkscape:pageopacity="0.0"
   inkscape:pagecheckerboard="0"
   inkscape:deskcolor="#d1d1d1"
   inkscape:zoom="1"
   inkscape:cx="511"
   inkscape:cy="273"
   inkscape:window-width="1728"
   inkscape:window-height="1003"
   inkscape:window-x="0"
   inkscape:window-y="0"
   inkscape:window-maximized="1"
   inkscape:current-layer="Capa_1" />

<path
   style="fill:#fffff0;stroke:#fffff0;stroke-width:0.64;stroke-linejoin:bevel;stroke-dasharray:none;fill-opacity:1;stroke-opacity:1"
   d="M 243.73084,511.21957 C 163.81604,507.9145 88.821497,465.52816 43.626337,398.12207 15.095627,355.57009 0.65259728,307.93995 0.63201728,256.33561 0.62301728,234.53659 2.3718373,218.28103 6.8133573,198.86919 29.653267,99.046282 111.73291,21.203994 212.17121,4.112928 232.02743,0.73409666 260.06249,-0.43019884 278.84135,1.3441179 381.19393,11.014878 466.85981,79.218287 499.02271,176.64286 c 8.41013,25.47512 12.34526,50.76896 12.34526,79.35187 0,39.71173 -8.02701,75.36985 -24.86861,110.47301 -32.92185,68.61947 -95.45547,119.52647 -169.1387,137.69144 -23.83305,5.87552 -47.47164,8.14223 -73.62982,7.06039 z M 213.4456,335.32308 c 3.76455,-1.12789 7.387,-4.41493 9.23204,-8.37724 l 1.60978,-3.4571 v -67.49401 -67.49401 l -1.60978,-3.45709 c -1.84504,-3.96232 -5.46749,-7.24936 -9.23204,-8.37724 -1.68198,-0.50394 -9.42986,-0.77818 -21.98491,-0.77818 h -19.38757 l -3.56171,1.77487 c -4.15105,2.06856 -6.6608,5.06045 -8.01248,9.55174 -1.43578,4.77075 -1.43578,132.78907 0,137.55982 1.35168,4.49129 3.86143,7.48319 8.01248,9.55174 l 3.56171,1.77487 h 19.38757 c 12.55505,0 20.30293,-0.27424 21.98491,-0.77817 z m 130.04794,-0.9967 c 4.15105,-2.06855 6.6608,-5.06045 8.01248,-9.55174 1.43578,-4.77075 1.43578,-132.78907 0,-137.55982 -1.35168,-4.49129 -3.86143,-7.48318 -8.01248,-9.55174 l -3.56172,-1.77487 h -19.38757 c -12.55504,0 -20.30292,0.27424 -21.98491,0.77818 -3.76455,1.12788 -7.38699,4.41492 -9.23203,8.37724 l -1.60978,3.45709 v 67.49401 67.49401 l 1.62661,3.49342 c 1.73177,3.71925 5.11049,6.88936 8.74929,8.20904 1.50567,0.54607 8.61661,0.82307 22.03085,0.85819 l 19.80754,0.0518 z"
   id="path2" /><path
   style="fill:none;stroke:#fffff0;stroke-width:1;stroke-linejoin:bevel;stroke-dasharray:none;fill-opacity:1;stroke-opacity:1"
   d="M 369.10786,797.21498 C 330.08938,793.81689 290.9185,784.93164 257.47481,771.89291 169.9794,737.78095 98.710868,675.98971 52.173611,593.89266 15.686134,529.52457 -1.5486285,454.16035 2.6279996,377.23946 4.3546429,345.43989 7.815232,324.38621 16.554345,292.51375 28.058354,250.5574 49.025566,206.79424 75.543921,169.38957 93.9056,143.49006 127.4468,108.04428 151.7976,88.805952 211.47662,41.656602 278.24328,13.584978 352.06391,4.6052339 c 22.27834,-2.7099984 79.37227,-2.727299 97.47004,-0.029535 30.57578,4.5578096 51.90574,9.5784871 78.07191,18.3766861 124.04856,41.710486 220.12004,142.870485 255.90356,269.457735 8.30821,29.391 12.15008,53.86811 13.87749,88.41545 3.74908,74.97997 -13.0138,147.55356 -48.96358,211.98402 -48.78311,87.43078 -129.01395,154.01118 -223.28995,185.29949 -23.3348,7.74434 -45.79143,12.93023 -72.40369,16.72008 -11.56523,1.64701 -22.08821,2.20009 -46.87084,2.46356 -17.57656,0.18685 -34.11451,0.15187 -36.75099,-0.0778 z M 336.77111,523.82755 c 4.60054,-2.4653 9.63918,-7.69146 12.13821,-12.58996 2.03465,-3.98823 2.08935,-6.90101 2.08935,-111.24805 0,-97.62166 -0.15681,-107.45583 -1.76291,-110.56175 -3.14824,-6.08813 -6.13522,-9.42245 -11.02005,-12.30154 l -4.79361,-2.82532 -32.03847,-0.37812 -32.03848,-0.37811 -5.34104,2.70651 c -5.63699,2.85648 -11.43993,8.64901 -13.37183,13.34782 -3.65743,8.89573 -3.23905,213.40601 0.45358,221.71921 1.98598,4.471 7.26914,9.58647 13.09523,12.67957 4.11715,2.18581 5.35778,2.2514 36.751,1.94327 28.02139,-0.27505 32.95063,-0.56573 35.83902,-2.11353 z m 199.44541,-0.19056 c 5.44305,-2.7582 11.24562,-8.59884 13.14972,-13.23602 3.36394,-8.19238 3.23829,-212.83989 -0.13582,-221.18659 -1.86576,-4.61548 -7.29567,-9.90665 -13.33043,-12.98988 l -5.24514,-2.6798 -32.03848,0.37811 -32.03847,0.37812 -4.79361,2.82532 c -4.88483,2.87909 -7.87181,6.21341 -11.02005,12.30154 -1.6061,3.10592 -1.76291,12.94009 -1.76291,110.56175 0,103.11762 0.0761,107.30142 2.02095,111.10483 4.37028,8.54665 10.76413,13.26058 19.23579,14.18177 3.24887,0.35328 18.26652,0.7128 33.37255,0.79894 27.14135,0.15476 27.52594,0.12599 32.5859,-2.43809 z"
   id="path1"
   transform="scale(0.64)" /></svg>
