<?xml version="1.0" encoding="UTF-8" standalone="no"?>
<svg
   viewBox="0 0 512 512"
   version="1.1"
   id="svg1"
   sodipodi:docname="pause.svg"
   inkscape:version="1.4.4 (dcaf3e7d9e, 2026-05-05)"
   xmlns:inkscape="http://www.inkscape.org/namespaces/inkscape"
   xmlns:sodipodi="http://sodipodi.sourceforge.net/DTD/sodipodi-0.dtd"
   xmlns="http://www.w3.org/2000/svg"
   xmlns:svg="http://www.w3.org/2000/svg">
  <defs
     id="defs1" />
  <sodipodi:namedview
     id="namedview1"
     pagecolor="#ffffff"
     bordercolor="#111111"
     borderopacity="1"
     inkscape:showpageshadow="0"
     inkscape:pageopacity="0"
     inkscape:pagecheckerboard="1"
     inkscape:deskcolor="#d1d1d1"
     inkscape:zoom="1.59375"
     inkscape:cx="256"
     inkscape:cy="255.68627"
     inkscape:window-width="1920"
     inkscape:window-height="1011"
     inkscape:window-x="0"
     inkscape:window-y="0"
     inkscape:window-maximized="1"
     inkscape:current-layer="svg1" />
  <circle
     cx="256"
     cy="256"
     r="250"
     fill="#ffffff"
     stroke="none"
     id="circle1"
     style="fill:#710180;fill-opacity:1" />
  <path
     fill="#710180"
     d="M 213.45,335.32 c 3.76,-1.13 7.39,-4.41 9.23,-8.38 l 1.61,-3.46 v -67.49 -67.49 l -1.61,-3.46 c -1.85,-3.96 -5.47,-7.25 -9.23,-8.38 -1.68,-0.5 -9.43,-0.78 -21.98,-0.78 h -19.39 l -3.56,1.77 c -4.15,2.07 -6.66,5.06 -8.01,9.55 -1.44,4.77 -1.44,132.79 0,137.56 1.35,4.49 3.86,7.48 8.01,9.55 l 3.56,1.77 h 19.39 c 12.56,0 20.3,-0.27 21.98,-0.78 z m 130.05,-1 c 4.15,-2.07 6.66,-5.06 8.01,-9.55 1.44,-4.77 1.44,-132.79 0,-137.56 -1.35,-4.49 -3.86,-7.48 -8.01,-9.55 l -3.56,-1.77 h -19.39 c -12.56,0 -20.3,0.27 -21.98,0.78 -3.76,1.13 -7.39,4.41 -9.23,8.38 l -1.61,3.46 v 67.49 67.49 l 1.63,3.49 c 1.73,3.72 5.11,6.89 8.75,8.21 1.51,0.55 8.62,0.82 22.03,0.86 l 19.81,0.05 z"
     id="path1"
     style="fill:#C6C6FF;fill-opacity:1" />
</svg>
