<?xml version="1.0" encoding="UTF-8" standalone="no"?>
<svg
   viewBox="0 0 512 512"
   version="1.1"
   id="svg1"
   sodipodi:docname="play.svg"
   inkscape:version="1.4.4 (dcaf3e7d9e, 2026-05-05)"
   xmlns:inkscape="http://www.inkscape.org/namespaces/inkscape"
   xmlns:sodipodi="http://sodipodi.sourceforge.net/DTD/sodipodi-0.dtd"
   xmlns="http://www.w3.org/2000/svg"
   xmlns:svg="http://www.w3.org/2000/svg">
  <defs
     id="defs1" />
  <sodipodi:namedview
     id="namedview1"
     pagecolor="#ffffff"
     bordercolor="#111111"
     borderopacity="1"
     inkscape:showpageshadow="0"
     inkscape:pageopacity="0"
     inkscape:pagecheckerboard="1"
     inkscape:deskcolor="#d1d1d1"
     inkscape:zoom="1.59375"
     inkscape:cx="256"
     inkscape:cy="255.68627"
     inkscape:window-width="1920"
     inkscape:window-height="1011"
     inkscape:window-x="0"
     inkscape:window-y="0"
     inkscape:window-maximized="1"
     inkscape:current-layer="svg1" />
  <circle
     cx="256"
     cy="256"
     r="250"
     fill="#ffffff"
     stroke="none"
     id="circle1"
     style="fill:#710180;fill-opacity:1" />
  <path
     fill="#710180"
     d="M 214.85,350.73 c 1.26,-0.64 31.56,-19.45 67.33,-41.79 51.43,-32.13 65.43,-41.17 66.92,-43.22 4.1,-5.66 4.11,-13.77 0.03,-19.41 -1.52,-2.1 -15.02,-10.82 -66.95,-43.26 -35.77,-22.34 -66.11,-41.19 -67.43,-41.88 -3.23,-1.7 -10.39,-1.71 -13.64,-0.01 -3.32,1.74 -6,4.36 -7.73,7.57 l -1.47,2.73 v 84.54 c 0,81.18 0.05,84.63 1.27,86.92 2.38,4.46 5.84,7.37 10.66,8.95 2.49,0.82 8.36,0.21 11.01,-1.14 z"
     id="path1"
     style="fill:#94e4ea;fill-opacity:1" />
</svg>
