<?xml version="1.0" encoding="UTF-8" standalone="no"?>
<!-- Uploaded to: SVG Repo, www.svgrepo.com, Generator: SVG Repo Mixer Tools -->

<svg
   fill="#000000"
   height="800px"
   width="800px"
   version="1.1"
   id="Capa_1"
   viewBox="0 0 512 512"
   xml:space="preserve"
   sodipodi:docname="play-alt.svg"
   inkscape:version="1.4 (e7c3feb100, 2024-10-09)"
   xmlns:inkscape="http://www.inkscape.org/namespaces/inkscape"
   xmlns:sodipodi="http://sodipodi.sourceforge.net/DTD/sodipodi-0.dtd"
   xmlns="http://www.w3.org/2000/svg"
   xmlns:svg="http://www.w3.org/2000/svg"><defs
   id="defs1" /><sodipodi:namedview
   id="namedview1"
   pagecolor="#fffff0"
   bordercolor="#000000"
   borderopacity="0.25"
   inkscape:showpageshadow="2"
   inkscape:pageopacity="0.0"
   inkscape:pagecheckerboard="0"
   inkscape:deskcolor="#d1d1d1"
   inkscape:zoom="90.509668"
   inkscape:cx="406.38753"
   inkscape:cy="299.57021"
   inkscape:window-width="1920"
   inkscape:window-height="1003"
   inkscape:window-x="0"
   inkscape:window-y="0"
   inkscape:window-maximized="1"
   inkscape:current-layer="Capa_1" />

<path
   style="fill:#4733ff;stroke:#4733ff;stroke-width:0.64;stroke-linejoin:bevel;stroke-opacity:1"
   d="m 248.11679,511.14748 c -0.0582,-0.0552 -3.56186,-0.29024 -7.78586,-0.52234 -9.54275,-0.52438 -15.49886,-1.08145 -20.16,-1.88553 -1.232,-0.21254 -3.248,-0.52342 -4.48,-0.69085 -1.232,-0.16743 -3.68,-0.60162 -5.44,-0.96486 -1.76,-0.36324 -4.064,-0.78369 -5.12,-0.93433 -6.48186,-0.92468 -26.69573,-6.69556 -36.96852,-10.5542 C 107.65236,472.86675 58.775465,429.71331 29.415485,373.09564 c -9.45967,-18.242 -15.2945,-33.26636 -20.0960801,-51.74625 -2.61215,-10.05341 -5.61781,-25.15259 -6.46982,-32.50157 -1.41173,-12.17699 -1.66309,-17.09201 -1.68557,-32.96 -0.0272,-19.21088 0.564,-28.08624 2.70718,-40.64 0.3906,-2.288 0.80864,-4.91863 0.92897,-5.84583 0.46096,-3.55191 6.1715901,-25.51607 8.3808101,-32.23417 C 41.940875,89.710655 115.47334,23.976953 205.13093,5.5758366 c 7.48611,-1.5364307 7.72965,-1.5747999 17.92,-2.8231971 20.88384,-2.55843311 47.8343,-2.70009167 64.3238,-0.3381026 1.58191,0.2265955 3.7402,0.5227723 4.7962,0.6581705 5.07011,0.6500801 20.00564,3.6947137 26.88,5.4795367 65.72805,17.0652849 121.2551,58.4595889 155.78629,116.1355759 12.96954,21.66247 23.59068,47.35405 29.5009,71.36 0.73662,2.992 1.43492,6.016 1.55178,6.72 0.11686,0.704 0.8448,4.88 1.61765,9.28 1.69169,9.63109 2.14083,13.28129 2.95303,24 0.48859,6.44795 0.50015,33.71535 0.0168,39.68 -0.19966,2.464 -0.62407,6.64 -0.94313,9.28 -0.31906,2.64 -0.59916,5.232 -0.62246,5.76 -0.22013,4.98905 -4.37842,24.63349 -7.58653,35.84 -7.85838,27.45058 -22.77561,57.54409 -40.13157,80.96 -31.36531,42.31672 -75.27231,74.10696 -125.50279,90.86852 -6.60895,2.20535 -24.94455,7.15509 -28.48,7.68823 -0.88,0.1327 -4.192,0.70984 -7.36,1.28252 -6.98794,1.26322 -8.67681,1.51939 -12.8,1.94153 -1.76,0.18019 -4.352,0.44664 -5.76,0.59211 -7.04788,0.72816 -32.69477,1.6611 -33.17414,1.20675 z M 222.87041,346.08344 c 51.86112,-31.93512 119.54357,-74.64124 123.87573,-78.16282 3.98411,-3.23865 5.50713,-6.56636 5.50713,-12.0328 0,-5.46341 -1.51997,-8.78717 -5.50713,-12.04265 -4.29118,-3.50371 -34.07454,-22.39246 -95.21521,-60.38595 -42.10728,-26.16592 -37.30784,-23.50869 -42.77866,-23.68461 -7.30382,-0.23486 -11.5665,2.09089 -15.38169,8.39236 l -2.16035,3.56821 0.36853,81.75632 c 0.20269,44.96597 0.48683,83.40466 0.63141,85.41931 0.36998,5.15515 3.51819,9.34391 9.08076,12.0821 2.07285,1.02037 3.49996,1.20869 7.49948,0.98963 4.92362,-0.26967 4.96883,-0.28861 14.08,-5.8991 z"
   id="path1" /></svg>
